# xmcd
#
# Track frame offsets:
#  150
#  12090
#  31728
#  46610
#  58940
#  72353
#  86845
#  95925
#  111853
#  122475
#  138108
#  149950
#  160810
#  174455
#
# Disc length: 2522 seconds
#
# Revision: 0
# Processed by: cddbd v1.5.1PL2 Copyright (c) Steve Scherf et al.
# Submitted via: Collectorz.com_Music_Collector 6.9
#
DISCID=c209d80e
DTITLE=Mr Music - Mr Music Country 03-91
DYEAR=1991
DGENRE=Country
TTITLE0=Dolly Parton - If You Need Me
TTITLE1=Charlie Daniels Band - Play Me Some Fiddle
TTITLE2=Doug Stone - I'd Be Better Off (In a Pinebox)
TTITLE3=Tim Mensy - Stone By Stone
TTITLE4=Sweetharts Of The Rodeo - Paralyzed
TTITLE5=Joe Diffie - There Goes The Neighborhood
TTITLE6=Vern Gosdin - Tight As Twin Fiddles
TTITLE7=Howard Crockett - Sunday Morning
TTITLE8=Shelby Lynne - Lonely Weekends
TTITLE9=Pat Patterson - Just Across The Line
TTITLE10=Becky Hobbs - All Keyed up
TTITLE11=George Jones with Charlie Daniels - Fiddle And Guitar Band
TTITLE12=Waylon Jennings - Reno And Me
TTITLE13=Tammy Wynette - Just For A Minute There
EXTD=
EXTT0=
EXTT1=
EXTT2=
EXTT3=
EXTT4=
EXTT5=
EXTT6=
EXTT7=
EXTT8=
EXTT9=
EXTT10=
EXTT11=
EXTT12=
EXTT13=
PLAYORDER=
